# xmcd CD database file
#
# Track frame offsets:
#	150
#	38785
#	58900
#	72212
#	94215
#	118157
#	137345
#	153925
#	167522
#	197802
#	223827
#	241750
#	261710
#	285702
#
# Disc length: 4632 seconds
#
# Revision: 4
# Processed by: cddbd v1.5.2PL0 Copyright (c) Steve Scherf et al.
# Submitted via: CDex 1.51
#
DISCID=d312160e
DTITLE=Bill Withers - Live At Carnegie Hall
DYEAR=1972
DGENRE=R&B
TTITLE0=Use Me
TTITLE1=Friend Of Mine
TTITLE2=Ain't No Sunshine
TTITLE3=Grandma's Hands
TTITLE4=World Keeps Going Around
TTITLE5=Let Me In Your Life
TTITLE6=Better Off Dead
TTITLE7=For My Friend
TTITLE8=I Can't Write Left-Handed
TTITLE9=Lean On Me
TTITLE10=Lonely Town, Lonely Street
TTITLE11=Hope She'll Be Happier
TTITLE12=Let Us Love
TTITLE13=Harlem - Cold Baloney
EXTD=YEAR: 1972
EXTT0=
EXTT1=
EXTT2=
EXTT3=
EXTT4=
EXTT5=
EXTT6=
EXTT7=
EXTT8=
EXTT9=
EXTT10=
EXTT11=
EXTT12=
EXTT13=
PLAYORDER=
